<svg width="512" height="476" viewBox="0 0 512 476" fill="none" xmlns="http://www.w3.org/2000/svg">
<g clip-path="url(#clip0_161_302)">
<g clip-path="url(#clip1_161_302)">
<rect x="18.0176" y="0.0175781" width="475.965" height="475.965" rx="237.982" fill="#2C5234"/>
<g clip-path="url(#clip2_161_302)">
<circle cx="474.417" cy="509.44" r="93.8863" stroke="white" stroke-width="8.89675"/>
<circle cx="514.293" cy="498.369" r="235.853" stroke="white" stroke-width="8.89675"/>
<circle cx="474.635" cy="529.303" r="240.086" stroke="white" stroke-width="8.89675"/>
<circle cx="477.704" cy="547.537" r="155.903" stroke="white" stroke-width="14.4572"/>
<circle cx="447.469" cy="527.349" r="179.998" stroke="white" stroke-width="14.4572"/>
</g>
<path d="M352.496 73.5894H366.191C375.031 73.5894 381.002 74.0217 384.103 74.8863C387.233 75.7509 389.61 77.1714 391.233 79.1477C392.856 81.124 393.871 83.332 394.277 85.7715C394.682 88.1801 394.885 92.9356 394.885 100.038V126.301C394.885 133.033 394.581 137.542 393.972 139.827C393.393 142.081 392.364 143.857 390.885 145.153C389.407 146.42 387.581 147.315 385.407 147.84C383.234 148.334 379.958 148.581 375.582 148.581H352.496V73.5894ZM370.799 86.4199V135.751C373.437 135.751 375.06 135.195 375.669 134.083C376.277 132.94 376.582 129.868 376.582 124.865V95.7302C376.582 92.3334 376.48 90.1564 376.277 89.1991C376.074 88.2419 375.611 87.5471 374.886 87.1147C374.161 86.6515 372.799 86.4199 370.799 86.4199Z" fill="white"/>
<path d="M315.453 73.5894H345.974V88.597H333.757V102.817H345.191V117.084H333.757V133.574H347.191V148.581H315.453V73.5894Z" fill="white"/>
<path d="M308.107 73.5894V148.581H289.803V73.5894H308.107Z" fill="white"/>
<path d="M274.195 73.5894V133.574H285.325V148.581H255.892V73.5894H274.195Z" fill="white"/>
<path d="M211.197 73.5894H229.631C234.616 73.5894 238.442 74.0062 241.108 74.84C243.804 75.6737 245.818 76.8781 247.152 78.4529C248.514 80.0278 249.427 81.9424 249.891 84.1966C250.383 86.4199 250.63 89.8785 250.63 94.5722V101.103C250.63 105.89 250.166 109.379 249.239 111.572C248.311 113.764 246.601 115.447 244.108 116.62C241.645 117.794 238.413 118.381 234.413 118.381H229.5V148.581H211.197V73.5894ZM229.5 86.4199V105.504C230.022 105.535 230.471 105.55 230.848 105.55C232.529 105.55 233.688 105.118 234.326 104.253C234.993 103.358 235.326 101.52 235.326 98.741V92.5805C235.326 90.0174 234.949 88.3499 234.196 87.5779C233.442 86.8059 231.877 86.4199 229.5 86.4199Z" fill="white"/>
<path d="M166.504 73.5894H184.938C189.923 73.5894 193.749 74.0062 196.416 74.84C199.111 75.6737 201.126 76.8781 202.459 78.4529C203.821 80.0278 204.734 81.9424 205.198 84.1966C205.691 86.4199 205.937 89.8785 205.937 94.5722V101.103C205.937 105.89 205.473 109.379 204.546 111.572C203.618 113.764 201.908 115.447 199.415 116.62C196.952 117.794 193.72 118.381 189.72 118.381H184.807V148.581H166.504V73.5894ZM184.807 86.4199V105.504C185.329 105.535 185.778 105.55 186.155 105.55C187.836 105.55 188.996 105.118 189.633 104.253C190.3 103.358 190.633 101.52 190.633 98.741V92.5805C190.633 90.0174 190.256 88.3499 189.503 87.5779C188.749 86.8059 187.184 86.4199 184.807 86.4199Z" fill="white"/>
<path d="M152.896 73.5894L163.373 148.581H144.635L143.722 135.102H137.157L136.07 148.581H117.114L126.418 73.5894H152.896ZM143.2 121.808C142.273 113.316 141.345 102.833 140.418 90.3571C138.563 104.685 137.403 115.169 136.94 121.808H143.2Z" fill="white"/>
<path d="M91.3938 319.71C90.9753 318.94 90.3698 318.356 89.577 317.96C88.8062 317.541 87.8923 317.332 86.8353 317.332C85.0075 317.332 83.5431 317.938 82.442 319.149C81.3409 320.338 80.7904 321.935 80.7904 323.939C80.7904 326.075 81.363 327.748 82.5081 328.959C83.6752 330.149 85.2718 330.743 87.2978 330.743C88.6851 330.743 89.8522 330.391 90.7992 329.686C91.7681 328.981 92.4728 327.968 92.9132 326.647H85.7452V322.485H98.0332V327.737C97.6148 329.147 96.8991 330.457 95.8861 331.668C94.8952 332.879 93.6289 333.859 92.0874 334.608C90.5459 335.357 88.8062 335.731 86.8683 335.731C84.5781 335.731 82.5301 335.236 80.7243 334.245C78.9406 333.232 77.5422 331.833 76.5292 330.05C75.5383 328.266 75.0428 326.229 75.0428 323.939C75.0428 321.648 75.5383 319.611 76.5292 317.828C77.5422 316.022 78.9406 314.623 80.7243 313.632C82.5081 312.62 84.5451 312.113 86.8353 312.113C89.61 312.113 91.9443 312.785 93.8381 314.128C95.754 315.471 97.0202 317.332 97.6368 319.71H91.3938ZM106.051 312.377V326.251C106.051 327.638 106.392 328.706 107.075 329.455C107.757 330.204 108.759 330.578 110.081 330.578C111.402 330.578 112.415 330.204 113.12 329.455C113.824 328.706 114.177 327.638 114.177 326.251V312.377H119.825V326.218C119.825 328.288 119.385 330.039 118.504 331.47C117.623 332.901 116.434 333.98 114.936 334.707C113.461 335.434 111.809 335.797 109.982 335.797C108.154 335.797 106.513 335.445 105.06 334.74C103.628 334.013 102.494 332.934 101.657 331.503C100.821 330.05 100.402 328.288 100.402 326.218V312.377H106.051ZM137.566 331.47H128.912L127.524 335.566H121.612L130.002 312.377H136.542L144.932 335.566H138.953L137.566 331.47ZM136.113 327.11L133.239 318.62L130.398 327.11H136.113ZM158.651 335.566L153.828 326.812H152.474V335.566H146.825V312.377H156.305C158.133 312.377 159.686 312.697 160.963 313.335C162.262 313.974 163.231 314.855 163.87 315.978C164.509 317.079 164.828 318.312 164.828 319.677C164.828 321.219 164.387 322.595 163.507 323.806C162.648 325.018 161.37 325.876 159.675 326.383L165.026 335.566H158.651ZM152.474 322.815H155.975C157.01 322.815 157.781 322.562 158.287 322.056C158.816 321.549 159.08 320.834 159.08 319.909C159.08 319.028 158.816 318.334 158.287 317.828C157.781 317.321 157.01 317.068 155.975 317.068H152.474V322.815ZM182.148 331.47H173.494L172.106 335.566H166.193L174.584 312.377H181.124L189.514 335.566H183.535L182.148 331.47ZM180.695 327.11L177.821 318.62L174.98 327.11H180.695ZM212.151 335.566H206.503L197.056 321.263V335.566H191.407V312.377H197.056L206.503 326.746V312.377H212.151V335.566ZM232.267 312.377V316.903H226.123V335.566H220.474V316.903H214.33V312.377H232.267ZM240.089 316.903V321.593H247.654V325.954H240.089V331.04H248.645V335.566H234.441V312.377H248.645V316.903H240.089ZM257.3 316.903V321.593H264.864V325.954H257.3V331.04H265.855V335.566H251.651V312.377H265.855V316.903H257.3ZM277.549 312.377C279.993 312.377 282.129 312.862 283.957 313.831C285.785 314.8 287.194 316.165 288.185 317.927C289.198 319.666 289.705 321.681 289.705 323.972C289.705 326.24 289.198 328.255 288.185 330.016C287.194 331.778 285.774 333.144 283.924 334.112C282.096 335.081 279.971 335.566 277.549 335.566H268.861V312.377H277.549ZM277.185 330.677C279.322 330.677 280.984 330.094 282.173 328.926C283.363 327.759 283.957 326.108 283.957 323.972C283.957 321.836 283.363 320.173 282.173 318.984C280.984 317.795 279.322 317.2 277.185 317.2H274.51V330.677H277.185ZM132.179 375.53L129.207 371.533C128.326 371.709 127.467 371.797 126.63 371.797C124.45 371.797 122.446 371.291 120.618 370.278C118.812 369.265 117.37 367.855 116.291 366.05C115.234 364.222 114.705 362.174 114.705 359.906C114.705 357.637 115.234 355.6 116.291 353.795C117.37 351.989 118.812 350.579 120.618 349.566C122.446 348.553 124.45 348.047 126.63 348.047C128.81 348.047 130.803 348.553 132.609 349.566C134.437 350.579 135.868 351.989 136.903 353.795C137.96 355.6 138.489 357.637 138.489 359.906C138.489 361.887 138.081 363.704 137.266 365.356C136.474 366.985 135.362 368.34 133.93 369.419L139.017 375.53H132.179ZM120.486 359.906C120.486 361.954 121.037 363.594 122.138 364.827C123.261 366.039 124.758 366.644 126.63 366.644C128.48 366.644 129.955 366.028 131.056 364.794C132.179 363.561 132.741 361.932 132.741 359.906C132.741 357.858 132.179 356.228 131.056 355.017C129.955 353.784 128.48 353.167 126.63 353.167C124.758 353.167 123.261 353.773 122.138 354.984C121.037 356.195 120.486 357.836 120.486 359.906ZM146.584 348.377V362.251C146.584 363.638 146.926 364.706 147.608 365.455C148.291 366.204 149.293 366.578 150.614 366.578C151.936 366.578 152.949 366.204 153.653 365.455C154.358 364.706 154.71 363.638 154.71 362.251V348.377H160.359V362.218C160.359 364.288 159.918 366.039 159.037 367.47C158.157 368.901 156.967 369.98 155.47 370.707C153.995 371.434 152.343 371.797 150.515 371.797C148.687 371.797 147.047 371.445 145.593 370.74C144.162 370.013 143.028 368.934 142.191 367.503C141.354 366.05 140.936 364.288 140.936 362.218V348.377H146.584ZM178.1 367.47H169.445L168.058 371.566H162.145L170.535 348.377H177.076L185.466 371.566H179.487L178.1 367.47ZM176.646 363.11L173.772 354.62L170.932 363.11H176.646ZM193.007 367.206H200.407V371.566H187.359V348.377H193.007V367.206ZM208.089 348.377V371.566H202.44V348.377H208.089ZM228.203 348.377V352.903H222.059V371.566H216.41V352.903H210.266V348.377H228.203ZM250.262 348.377L242.235 363.902V371.566H236.587V363.902L228.56 348.377H234.968L239.461 358.089L243.92 348.377H250.262Z" fill="white"/>
</g>
<rect x="21.7712" y="3.77124" width="468.457" height="468.457" rx="234.229" stroke="#25462C" stroke-width="7.50733"/>
<rect x="3.75367" y="168.932" width="504.493" height="104.352" rx="14.2639" fill="white"/>
<rect x="3.75367" y="168.932" width="504.493" height="104.352" rx="14.2639" stroke="#2C5234" stroke-width="7.50733"/>
<path d="M61.9766 214.992H47.9632V210.099C47.9632 207.014 47.8301 205.084 47.5638 204.307C47.2975 203.531 46.6651 203.142 45.6665 203.142C44.8011 203.142 44.213 203.475 43.9023 204.141C43.5917 204.806 43.4363 206.515 43.4363 209.267V235.13C43.4363 237.549 43.5917 239.146 43.9023 239.923C44.213 240.678 44.8343 241.055 45.7663 241.055C46.7871 241.055 47.475 240.622 47.8301 239.757C48.2073 238.891 48.3959 237.205 48.3959 234.697V228.306H45.5666V220.118H61.9766V249.043H53.1558L51.8577 245.182C50.9035 246.847 49.6941 248.1 48.2295 248.944C46.7871 249.765 45.0784 250.175 43.1035 250.175C40.7513 250.175 38.5433 249.609 36.4796 248.478C34.438 247.324 32.8847 245.903 31.8195 244.217C30.7544 242.531 30.0887 240.766 29.8224 238.925C29.5561 237.061 29.423 234.276 29.423 230.57V214.559C29.423 209.411 29.7003 205.672 30.2551 203.342C30.8099 201.012 32.3965 198.882 35.015 196.951C37.6557 194.998 41.0619 194.022 45.2338 194.022C49.339 194.022 52.7453 194.865 55.4525 196.552C58.1598 198.238 59.924 200.246 60.745 202.576C61.5661 204.884 61.9766 208.246 61.9766 212.662V214.992ZM71.5257 195.154H94.8924V205.938H85.539V216.157H94.2932V226.409H85.539V238.259H95.8244V249.043H71.5257V195.154ZM135.264 195.154V249.043H122.982L115.692 224.545V249.043H103.975V195.154H115.692L123.548 219.419V195.154H135.264ZM176.868 195.154V231.169C176.868 235.252 176.734 238.126 176.468 239.79C176.202 241.432 175.414 243.13 174.105 244.883C172.796 246.614 171.065 247.934 168.912 248.844C166.782 249.731 164.263 250.175 161.356 250.175C158.139 250.175 155.298 249.643 152.835 248.577C150.372 247.512 148.53 246.125 147.31 244.417C146.089 242.708 145.368 240.911 145.146 239.024C144.924 237.116 144.813 233.122 144.813 227.041V195.154H158.827V235.563C158.827 237.915 158.949 239.424 159.193 240.09C159.459 240.733 159.981 241.055 160.757 241.055C161.645 241.055 162.211 240.7 162.455 239.99C162.721 239.257 162.854 237.549 162.854 234.864V195.154H176.868ZM200.397 195.154V249.043H186.383V195.154H200.397ZM241.401 195.154V249.043H229.119L221.829 224.545V249.043H210.112V195.154H221.829L229.684 219.419V195.154H241.401ZM251.15 195.154H274.517V205.938H265.163V216.157H273.917V226.409H265.163V238.259H275.449V249.043H251.15V195.154ZM299.739 195.154H313.853C317.669 195.154 320.598 195.453 322.64 196.052C324.704 196.651 326.246 197.517 327.267 198.649C328.31 199.78 329.009 201.156 329.364 202.776C329.741 204.374 329.93 206.859 329.93 210.232V214.925C329.93 218.365 329.575 220.872 328.864 222.448C328.154 224.024 326.845 225.233 324.937 226.076C323.051 226.919 320.576 227.341 317.514 227.341H313.753V249.043H299.739V195.154ZM313.753 204.374V218.088C314.152 218.11 314.496 218.121 314.785 218.121C316.072 218.121 316.959 217.81 317.447 217.189C317.958 216.545 318.213 215.225 318.213 213.228V208.801C318.213 206.959 317.924 205.761 317.348 205.206C316.771 204.651 315.572 204.374 313.753 204.374ZM362.246 195.154L370.268 249.043H355.922L355.223 239.357H350.197L349.365 249.043H334.852L341.975 195.154H362.246ZM354.823 229.804C354.113 223.702 353.403 216.168 352.693 207.203C351.273 217.499 350.385 225.033 350.03 229.804H354.823ZM376.755 195.154H386.674C393.287 195.154 397.758 195.409 400.088 195.919C402.441 196.43 404.349 197.739 405.814 199.847C407.3 201.933 408.044 205.272 408.044 209.866C408.044 214.06 407.522 216.878 406.479 218.321C405.436 219.763 403.384 220.628 400.321 220.917C403.095 221.605 404.959 222.526 405.913 223.68C406.868 224.833 407.456 225.899 407.678 226.875C407.922 227.829 408.044 230.481 408.044 234.83V249.043H395.029V231.136C395.029 228.251 394.796 226.465 394.33 225.777C393.886 225.089 392.699 224.745 390.768 224.745V249.043H376.755V195.154ZM390.768 204.374V216.357C392.344 216.357 393.442 216.146 394.064 215.724C394.707 215.28 395.029 213.871 395.029 211.497V208.534C395.029 206.826 394.718 205.705 394.097 205.173C393.498 204.64 392.388 204.374 390.768 204.374ZM445.819 195.154V205.938H437.498V249.043H423.484V205.938H415.196V195.154H445.819ZM482.796 211.464H469.781V207.469C469.781 205.605 469.615 204.418 469.282 203.908C468.949 203.397 468.394 203.142 467.617 203.142C466.774 203.142 466.131 203.486 465.687 204.174C465.265 204.862 465.054 205.905 465.054 207.303C465.054 209.1 465.299 210.454 465.787 211.364C466.253 212.274 467.573 213.372 469.748 214.659C475.983 218.365 479.911 221.405 481.531 223.779C483.151 226.154 483.961 229.982 483.961 235.263C483.961 239.102 483.506 241.931 482.596 243.751C481.709 245.571 479.978 247.102 477.404 248.344C474.829 249.565 471.834 250.175 468.416 250.175C464.666 250.175 461.46 249.465 458.797 248.045C456.156 246.625 454.425 244.816 453.604 242.619C452.783 240.422 452.373 237.305 452.373 233.266V229.738H465.387V236.295C465.387 238.314 465.565 239.612 465.92 240.189C466.297 240.766 466.952 241.055 467.884 241.055C468.816 241.055 469.504 240.689 469.948 239.956C470.414 239.224 470.647 238.137 470.647 236.694C470.647 233.521 470.214 231.446 469.348 230.47C468.461 229.494 466.275 227.863 462.791 225.577C459.307 223.269 456.999 221.594 455.868 220.551C454.736 219.508 453.793 218.065 453.038 216.224C452.306 214.382 451.94 212.03 451.94 209.167C451.94 205.039 452.461 202.022 453.504 200.113C454.569 198.205 456.278 196.718 458.63 195.653C460.982 194.565 463.823 194.022 467.151 194.022C470.791 194.022 473.886 194.61 476.438 195.786C479.012 196.962 480.71 198.449 481.531 200.246C482.374 202.022 482.796 205.051 482.796 209.333V211.464Z" fill="#2C5234"/>
</g>
<defs>
<clipPath id="clip0_161_302">
<rect width="512" height="475.965" fill="white" transform="translate(0 0.0175781)"/>
</clipPath>
<clipPath id="clip1_161_302">
<rect x="18.0176" y="0.0175781" width="475.965" height="475.965" rx="237.982" fill="white"/>
</clipPath>
<clipPath id="clip2_161_302">
<rect x="224.469" y="257.519" width="298.041" height="312.498" rx="35.587" fill="white"/>
</clipPath>
</defs>
</svg>
