<svg width="534" height="396" viewBox="0 0 534 396" fill="none" xmlns="http://www.w3.org/2000/svg">
<path d="M344.404 353.92H354.347C358.374 353.92 361.513 354.871 363.764 356.772C366.015 358.648 367.141 361.274 367.141 364.651C367.141 366.852 366.603 368.803 365.528 370.504C364.477 372.205 363.014 373.543 361.138 374.519C359.287 375.469 357.161 375.944 354.759 375.944H344.404L344.291 374.218L346.655 373.656C346.73 373.456 346.793 372.818 346.843 371.742C346.893 370.667 346.918 369.403 346.918 367.953V361.949C346.918 360.399 346.893 359.098 346.843 358.047C346.793 356.972 346.73 356.359 346.655 356.209L344.291 355.646L344.404 353.92ZM351.42 356.246C351.42 356.446 351.408 356.772 351.383 357.222C351.383 357.672 351.37 358.285 351.345 359.06C351.345 359.811 351.345 360.774 351.345 361.949V367.953C351.345 368.628 351.345 369.316 351.345 370.016C351.37 370.717 351.395 371.354 351.42 371.93C351.47 372.505 351.508 372.968 351.533 373.318C352.183 373.418 352.796 373.506 353.371 373.581C353.972 373.631 354.534 373.656 355.06 373.656C357.361 373.656 359.099 373.018 360.275 371.742C361.476 370.441 362.076 368.465 362.076 365.814C362.076 364.088 361.876 362.612 361.476 361.387C361.075 360.161 360.513 359.148 359.787 358.347C359.062 357.547 358.199 356.959 357.198 356.584C356.223 356.209 355.147 356.021 353.972 356.021C353.571 356.021 353.159 356.046 352.733 356.096C352.308 356.121 351.87 356.171 351.42 356.246Z" fill="black"/>
<path d="M336.376 369.491V362.887C336.376 361.587 336.363 360.461 336.338 359.511C336.338 358.535 336.313 357.772 336.263 357.222C336.238 356.647 336.201 356.309 336.151 356.209L333.562 355.646L333.674 353.92H341.366L341.478 355.646L339.115 356.209C339.09 356.309 339.052 356.647 339.002 357.222C338.977 357.772 338.952 358.535 338.927 359.511C338.902 360.461 338.889 361.587 338.889 362.887V370.617C338.889 371.667 338.889 372.63 338.889 373.506C338.915 374.381 338.927 375.257 338.927 376.132H336.826L322.193 358.347L323.769 358.31V366.639C323.769 368.04 323.781 369.241 323.806 370.241C323.831 371.242 323.856 372.03 323.881 372.605C323.931 373.155 323.981 373.506 324.032 373.656L326.62 374.218L326.508 375.944H318.704L318.591 374.218L320.955 373.656C321.005 373.506 321.042 373.143 321.067 372.568C321.092 371.967 321.117 371.167 321.142 370.166C321.167 369.141 321.18 367.965 321.18 366.639V361.161C321.18 360.286 321.167 359.498 321.142 358.798C321.117 358.072 321.08 357.484 321.03 357.034C321.005 356.584 320.98 356.309 320.955 356.209L318.591 355.646L318.704 353.92H324.369L337.614 369.491H336.376Z" fill="black"/>
<path d="M294.728 375.944L294.615 374.218L296.529 373.656L304.183 354.858L306.997 353.245L315.477 373.656L317.39 374.218L317.277 375.944H308.085L307.972 374.218L310.336 373.656L308.235 368.553L307.822 367.315L303.958 358.01L304.971 358.047L301.594 367.24L301.219 368.365L299.38 373.656L301.744 374.218L301.632 375.944H294.728ZM300.431 369.378V367.015C300.906 367.04 301.482 367.077 302.157 367.127C302.857 367.152 303.745 367.165 304.821 367.165C305.871 367.165 306.747 367.152 307.447 367.127C308.173 367.077 308.76 367.04 309.211 367.015V369.341C308.61 369.341 307.947 369.328 307.222 369.303C306.522 369.278 305.721 369.266 304.821 369.266C303.92 369.266 303.12 369.278 302.419 369.303C301.719 369.328 301.056 369.353 300.431 369.378Z" fill="black"/>
<path d="M292.963 376.17C292.413 376.119 291.813 376.082 291.162 376.057C290.512 376.032 289.887 376.007 289.286 375.982C288.711 375.957 288.223 375.944 287.823 375.944H276.267L276.154 374.218L278.518 373.656C278.568 373.531 278.606 373.205 278.631 372.68C278.656 372.155 278.668 371.48 278.668 370.654C278.693 369.829 278.706 368.928 278.706 367.953V361.949C278.706 360.924 278.693 360.011 278.668 359.21C278.668 358.385 278.656 357.71 278.631 357.184C278.606 356.659 278.568 356.346 278.518 356.246L276.154 355.646L276.267 353.92H286.397L286.51 355.721L283.396 356.246C283.371 356.321 283.333 356.609 283.283 357.109C283.258 357.585 283.233 358.235 283.208 359.06C283.183 359.886 283.171 360.849 283.171 361.949V367.953C283.171 369.353 283.183 370.516 283.208 371.442C283.233 372.342 283.258 372.943 283.283 373.243C283.683 373.318 284.096 373.368 284.521 373.393C284.972 373.418 285.509 373.431 286.135 373.431H287.898C288.498 373.431 288.999 373.406 289.399 373.356C289.824 373.305 290.199 373.255 290.525 373.205L292.588 369.266L294.689 369.791L292.963 376.17Z" fill="black"/>
<path d="M272.254 376.17C271.578 376.095 270.803 376.032 269.927 375.982C269.077 375.957 268.301 375.944 267.601 375.944H254.694L254.582 374.219L256.945 373.656C256.995 373.531 257.033 373.218 257.058 372.718C257.108 372.217 257.145 371.567 257.17 370.767C257.195 369.941 257.208 369.003 257.208 367.953V361.949C257.208 360.874 257.195 359.923 257.17 359.098C257.145 358.272 257.108 357.61 257.058 357.109C257.033 356.609 256.995 356.309 256.945 356.209L254.582 355.646L254.694 353.92H266.438C266.888 353.92 267.413 353.92 268.014 353.92C268.639 353.895 269.252 353.87 269.852 353.845C270.478 353.795 271.015 353.758 271.466 353.733L272.366 359.098L270.378 359.361L269.027 356.134C268.727 356.084 268.451 356.046 268.201 356.021C267.951 355.996 267.676 355.984 267.376 355.984H264.074C263.599 355.984 263.149 355.996 262.723 356.021C262.323 356.021 261.973 356.046 261.673 356.096C261.673 356.246 261.66 356.534 261.635 356.959C261.635 357.385 261.623 357.91 261.598 358.535C261.598 359.16 261.598 359.848 261.598 360.599V369.228C261.598 369.929 261.598 370.579 261.598 371.179C261.623 371.755 261.635 372.255 261.635 372.68C261.66 373.08 261.673 373.381 261.673 373.581C262.098 373.631 262.536 373.668 262.986 373.693C263.436 373.718 263.999 373.731 264.674 373.731H267.226C267.826 373.731 268.289 373.731 268.614 373.731C268.939 373.706 269.189 373.681 269.364 373.656C269.54 373.631 269.715 373.606 269.89 373.581L271.916 369.904L273.904 370.279L272.254 376.17ZM267.676 368.365L267.301 365.852C267.126 365.827 266.863 365.802 266.513 365.777C266.163 365.751 265.75 365.739 265.275 365.739H263.024C262.623 365.739 262.223 365.751 261.823 365.777C261.448 365.802 261.123 365.827 260.847 365.852V363.413C261.123 363.438 261.448 363.463 261.823 363.488C262.223 363.488 262.623 363.488 263.024 363.488H265.275C265.75 363.488 266.163 363.488 266.513 363.488C266.863 363.463 267.126 363.45 267.301 363.45L267.676 360.899H269.59V368.365H267.676Z" fill="black"/>
<path d="M232.294 375.944L232.182 374.218L234.545 373.618C234.545 373.468 234.545 373.193 234.545 372.793C234.57 372.367 234.583 371.88 234.583 371.329C234.608 370.779 234.62 370.216 234.62 369.641C234.645 369.041 234.658 368.478 234.658 367.953V361.949C234.658 360.874 234.645 359.923 234.62 359.098C234.595 358.272 234.558 357.61 234.508 357.109C234.483 356.609 234.445 356.309 234.395 356.209L232.032 355.646L232.144 353.92H241.374C244.076 353.92 246.089 354.383 247.415 355.308C248.741 356.209 249.403 357.61 249.403 359.511C249.403 360.736 249.041 361.837 248.315 362.812C247.59 363.763 246.589 364.513 245.314 365.064C244.038 365.614 242.575 365.889 240.924 365.889H238.635V363.9H240.361C241.687 363.9 242.75 363.513 243.55 362.737C244.351 361.962 244.751 360.924 244.751 359.623C244.751 358.397 244.413 357.472 243.738 356.847C243.063 356.196 242.087 355.871 240.811 355.871H239.123C239.098 355.946 239.073 356.121 239.048 356.396C239.048 356.672 239.048 357.047 239.048 357.522C239.048 357.997 239.048 358.573 239.048 359.248C239.048 359.898 239.048 360.661 239.048 361.537V367.953C239.048 368.753 239.048 369.541 239.048 370.316C239.073 371.092 239.098 371.78 239.123 372.38C239.173 372.955 239.21 373.368 239.235 373.618L241.374 374.218L241.262 375.944H232.294ZM251.279 376.357C249.979 376.357 248.816 376.145 247.79 375.719C246.79 375.269 245.864 374.569 245.014 373.618C244.188 372.668 243.388 371.429 242.612 369.904L240.361 365.289L244.038 364.426L248.353 370.579C248.953 371.404 249.516 372.092 250.041 372.643C250.567 373.168 251.104 373.581 251.655 373.881C252.205 374.181 252.793 374.406 253.418 374.556L253.381 376.17C253.03 376.245 252.68 376.295 252.33 376.32C251.98 376.345 251.63 376.357 251.279 376.357Z" fill="black"/>
<path d="M219.762 375.944L219.649 374.218L222.013 373.656C222.063 373.531 222.101 373.218 222.126 372.718C222.151 372.217 222.176 371.555 222.201 370.729C222.226 369.904 222.238 368.978 222.238 367.953V361.949C222.238 360.874 222.226 359.923 222.201 359.098C222.176 358.272 222.151 357.61 222.126 357.109C222.101 356.584 222.063 356.284 222.013 356.209L219.649 355.646L219.762 353.92H229.142L229.255 355.646L226.891 356.209C226.841 356.309 226.791 356.609 226.741 357.109C226.716 357.61 226.691 358.272 226.666 359.098C226.666 359.898 226.666 360.849 226.666 361.949V367.953C226.666 369.003 226.666 369.941 226.666 370.767C226.691 371.567 226.716 372.217 226.741 372.718C226.791 373.218 226.841 373.531 226.891 373.656L229.255 374.218L229.142 375.944H219.762Z" fill="black"/>
<path d="M204.417 369.491V362.887C204.417 361.587 204.405 360.461 204.38 359.511C204.38 358.535 204.355 357.772 204.305 357.222C204.28 356.647 204.242 356.309 204.192 356.209L201.603 355.646L201.716 353.92H209.407L209.52 355.646L207.156 356.209C207.131 356.309 207.094 356.647 207.044 357.222C207.019 357.772 206.994 358.535 206.969 359.511C206.944 360.461 206.931 361.587 206.931 362.887V370.617C206.931 371.667 206.931 372.63 206.931 373.506C206.956 374.381 206.969 375.257 206.969 376.132H204.868L190.235 358.347L191.81 358.31V366.639C191.81 368.04 191.823 369.241 191.848 370.241C191.873 371.242 191.898 372.03 191.923 372.605C191.973 373.155 192.023 373.506 192.073 373.656L194.662 374.218L194.549 375.944H186.745L186.633 374.218L188.996 373.656C189.046 373.506 189.084 373.143 189.109 372.568C189.134 371.967 189.159 371.167 189.184 370.166C189.209 369.141 189.222 367.965 189.222 366.639V361.161C189.222 360.286 189.209 359.498 189.184 358.798C189.159 358.072 189.122 357.484 189.072 357.034C189.046 356.584 189.021 356.309 188.996 356.209L186.633 355.646L186.745 353.92H192.411L205.655 369.491H204.417Z" fill="black"/>
<path d="M174.288 375.944L174.176 374.218L176.54 373.656C176.59 373.531 176.627 373.218 176.652 372.718C176.677 372.217 176.702 371.555 176.727 370.729C176.752 369.904 176.765 368.978 176.765 367.953V361.949C176.765 360.874 176.752 359.923 176.727 359.098C176.702 358.272 176.677 357.61 176.652 357.109C176.627 356.584 176.59 356.284 176.54 356.209L174.176 355.646L174.288 353.92H183.668L183.781 355.646L181.417 356.209C181.367 356.309 181.317 356.609 181.267 357.109C181.242 357.61 181.217 358.272 181.192 359.098C181.192 359.898 181.192 360.849 181.192 361.949V367.953C181.192 369.003 181.192 369.941 181.192 370.767C181.217 371.567 181.242 372.217 181.267 372.718C181.317 373.218 181.367 373.531 181.417 373.656L183.781 374.218L183.668 375.944H174.288Z" fill="black"/>
<path d="M500.263 311.682H510.206C514.233 311.682 517.372 312.632 519.623 314.533C521.875 316.409 523 319.036 523 322.413C523 324.614 522.462 326.565 521.387 328.266C520.336 329.967 518.873 331.305 516.997 332.28C515.146 333.231 513.02 333.706 510.619 333.706H500.263L500.151 331.98L502.514 331.417C502.589 331.217 502.652 330.58 502.702 329.504C502.752 328.428 502.777 327.165 502.777 325.714V319.711C502.777 318.16 502.752 316.86 502.702 315.809C502.652 314.733 502.589 314.121 502.514 313.971L500.151 313.408L500.263 311.682ZM507.279 314.008C507.279 314.208 507.267 314.533 507.242 314.984C507.242 315.434 507.229 316.047 507.204 316.822C507.204 317.573 507.204 318.536 507.204 319.711V325.714C507.204 326.39 507.204 327.078 507.204 327.778C507.229 328.478 507.254 329.116 507.279 329.692C507.329 330.267 507.367 330.73 507.392 331.08C508.042 331.18 508.655 331.267 509.23 331.342C509.831 331.392 510.394 331.417 510.919 331.417C513.22 331.417 514.958 330.78 516.134 329.504C517.335 328.203 517.935 326.227 517.935 323.576C517.935 321.85 517.735 320.374 517.335 319.148C516.935 317.923 516.372 316.91 515.646 316.109C514.921 315.309 514.058 314.721 513.057 314.346C512.082 313.971 511.006 313.783 509.831 313.783C509.431 313.783 509.018 313.808 508.593 313.858C508.167 313.883 507.73 313.933 507.279 314.008Z" fill="black"/>
<path d="M496.324 333.931C495.649 333.856 494.874 333.794 493.998 333.744C493.148 333.719 492.372 333.706 491.672 333.706H478.765L478.652 331.98L481.016 331.417C481.066 331.292 481.104 330.98 481.129 330.479C481.179 329.979 481.216 329.329 481.241 328.528C481.266 327.703 481.279 326.765 481.279 325.714V319.711C481.279 318.636 481.266 317.685 481.241 316.86C481.216 316.034 481.179 315.371 481.129 314.871C481.104 314.371 481.066 314.071 481.016 313.971L478.652 313.408L478.765 311.682H490.509C490.959 311.682 491.484 311.682 492.085 311.682C492.71 311.657 493.323 311.632 493.923 311.607C494.549 311.557 495.086 311.519 495.537 311.494L496.437 316.86L494.448 317.122L493.098 313.896C492.798 313.846 492.522 313.808 492.272 313.783C492.022 313.758 491.747 313.746 491.447 313.746H488.145C487.67 313.746 487.22 313.758 486.794 313.783C486.394 313.783 486.044 313.808 485.744 313.858C485.744 314.008 485.731 314.296 485.706 314.721C485.706 315.146 485.694 315.672 485.669 316.297C485.669 316.922 485.669 317.61 485.669 318.36V326.99C485.669 327.69 485.669 328.341 485.669 328.941C485.694 329.516 485.706 330.017 485.706 330.442C485.731 330.842 485.744 331.142 485.744 331.342C486.169 331.392 486.607 331.43 487.057 331.455C487.507 331.48 488.07 331.493 488.745 331.493H491.297C491.897 331.493 492.36 331.493 492.685 331.493C493.01 331.468 493.26 331.443 493.435 331.417C493.611 331.392 493.786 331.367 493.961 331.342L495.987 327.665L497.975 328.041L496.324 333.931ZM491.747 326.127L491.372 323.613C491.197 323.588 490.934 323.563 490.584 323.538C490.234 323.513 489.821 323.501 489.346 323.501H487.095C486.694 323.501 486.294 323.513 485.894 323.538C485.519 323.563 485.193 323.588 484.918 323.613V321.174C485.193 321.2 485.519 321.225 485.894 321.25C486.294 321.25 486.694 321.25 487.095 321.25H489.346C489.821 321.25 490.234 321.25 490.584 321.25C490.934 321.225 491.197 321.212 491.372 321.212L491.747 318.661H493.661V326.127H491.747Z" fill="black"/>
<path d="M456.365 333.706L456.253 331.98L458.616 331.38C458.616 331.23 458.616 330.955 458.616 330.554C458.641 330.129 458.654 329.642 458.654 329.091C458.679 328.541 458.691 327.978 458.691 327.403C458.716 326.802 458.729 326.24 458.729 325.714V319.711C458.729 318.636 458.716 317.685 458.691 316.86C458.666 316.034 458.629 315.371 458.579 314.871C458.554 314.371 458.516 314.071 458.466 313.971L456.103 313.408L456.215 311.682H465.445C468.146 311.682 470.16 312.145 471.486 313.07C472.811 313.971 473.474 315.371 473.474 317.272C473.474 318.498 473.112 319.599 472.386 320.574C471.661 321.525 470.66 322.275 469.385 322.825C468.109 323.376 466.646 323.651 464.995 323.651H462.706V321.662H464.432C465.758 321.662 466.821 321.275 467.621 320.499C468.422 319.724 468.822 318.686 468.822 317.385C468.822 316.159 468.484 315.234 467.809 314.608C467.133 313.958 466.158 313.633 464.882 313.633H463.194C463.169 313.708 463.144 313.883 463.119 314.158C463.119 314.433 463.119 314.809 463.119 315.284C463.119 315.759 463.119 316.334 463.119 317.01C463.119 317.66 463.119 318.423 463.119 319.298V325.714C463.119 326.515 463.119 327.303 463.119 328.078C463.144 328.854 463.169 329.541 463.194 330.142C463.244 330.717 463.281 331.13 463.306 331.38L465.445 331.98L465.332 333.706H456.365ZM475.35 334.119C474.05 334.119 472.887 333.906 471.861 333.481C470.86 333.031 469.935 332.33 469.085 331.38C468.259 330.429 467.459 329.191 466.683 327.665L464.432 323.05L468.109 322.187L472.424 328.341C473.024 329.166 473.587 329.854 474.112 330.404C474.637 330.93 475.175 331.342 475.726 331.643C476.276 331.943 476.864 332.168 477.489 332.318L477.452 333.931C477.101 334.006 476.751 334.056 476.401 334.081C476.051 334.106 475.701 334.119 475.35 334.119Z" fill="black"/>
<path d="M430.437 311.682H439.742L439.855 313.408L437.491 314.008C437.466 314.208 437.441 314.546 437.416 315.021C437.391 315.496 437.366 316.122 437.341 316.897C437.341 317.648 437.341 318.586 437.341 319.711V324.214C437.341 325.714 437.554 326.965 437.979 327.966C438.429 328.941 439.067 329.679 439.893 330.179C440.718 330.655 441.706 330.892 442.857 330.892C443.982 330.892 444.933 330.655 445.708 330.179C446.484 329.704 447.071 328.966 447.472 327.966C447.872 326.94 448.072 325.652 448.072 324.101V320.387C448.072 319.111 448.059 318.01 448.034 317.085C448.009 316.159 447.984 315.434 447.959 314.909C447.934 314.383 447.897 314.083 447.847 314.008L445.22 313.408L445.333 311.682H453.325L453.437 313.408L451.074 314.008C451.049 314.083 451.024 314.383 450.999 314.909C450.974 315.434 450.949 316.159 450.924 317.085C450.898 318.01 450.886 319.111 450.886 320.387V324.589C450.886 326.615 450.523 328.328 449.798 329.729C449.098 331.13 448.097 332.205 446.796 332.956C445.496 333.681 443.982 334.044 442.256 334.044C439.255 334.044 436.941 333.243 435.315 331.643C433.689 330.042 432.876 327.765 432.876 324.814V319.711C432.876 318.561 432.864 317.573 432.839 316.747C432.814 315.922 432.789 315.284 432.764 314.834C432.739 314.358 432.714 314.083 432.689 314.008L430.325 313.408L430.437 311.682Z" fill="black"/>
<path d="M427.587 311.494L428.45 317.948L426.349 318.135L424.848 313.858C424.573 313.808 424.298 313.783 424.023 313.783C423.772 313.758 423.51 313.746 423.235 313.746H421.921C421.696 313.746 421.409 313.746 421.059 313.746C420.733 313.746 420.471 313.771 420.271 313.821C420.271 313.996 420.258 314.458 420.233 315.209C420.233 315.959 420.221 316.86 420.196 317.91C420.196 318.936 420.196 319.974 420.196 321.024V325.039C420.196 326.49 420.208 327.791 420.233 328.941C420.258 330.092 420.283 330.917 420.308 331.417L423.535 331.905L423.422 333.706H412.466L412.354 331.905L415.581 331.417C415.606 330.917 415.631 330.092 415.656 328.941C415.681 327.791 415.693 326.49 415.693 325.039V321.024C415.693 319.974 415.681 318.936 415.656 317.91C415.656 316.86 415.656 315.959 415.656 315.209C415.656 314.458 415.643 313.996 415.618 313.821C415.418 313.771 415.155 313.746 414.83 313.746C414.505 313.746 414.217 313.746 413.967 313.746H412.617C412.341 313.746 412.066 313.758 411.791 313.783C411.516 313.783 411.241 313.808 410.966 313.858L409.502 318.21L407.401 317.985L408.189 311.494C408.464 311.519 408.802 311.544 409.202 311.569C409.602 311.569 410.028 311.582 410.478 311.607C410.928 311.632 411.366 311.657 411.791 311.682C412.216 311.682 412.592 311.682 412.917 311.682H422.859C423.185 311.682 423.56 311.682 423.985 311.682C424.41 311.657 424.848 311.632 425.298 311.607C425.749 311.582 426.174 311.569 426.574 311.569C426.974 311.544 427.312 311.519 427.587 311.494Z" fill="black"/>
<path d="M397.719 334.044C395.368 334.044 393.279 333.619 391.453 332.768C389.628 331.918 388.189 330.667 387.139 329.016C386.088 327.365 385.563 325.352 385.563 322.975C385.563 321.249 385.863 319.674 386.463 318.248C387.089 316.822 387.964 315.596 389.09 314.571C390.24 313.545 391.604 312.757 393.179 312.207C394.755 311.632 396.506 311.344 398.432 311.344C399.533 311.344 400.658 311.457 401.809 311.682C402.96 311.907 403.948 312.207 404.773 312.582L405.036 318.135L402.935 318.285L401.697 314.458C401.221 314.183 400.658 313.983 400.008 313.858C399.383 313.708 398.745 313.633 398.095 313.633C396.494 313.633 395.155 313.996 394.08 314.721C393.029 315.446 392.229 316.447 391.679 317.723C391.153 318.998 390.891 320.474 390.891 322.15C390.891 324.151 391.228 325.864 391.904 327.29C392.579 328.716 393.48 329.804 394.605 330.554C395.756 331.305 397.032 331.68 398.432 331.68C399.108 331.68 399.795 331.58 400.496 331.38C401.196 331.18 401.784 330.892 402.259 330.517L403.685 327.103L405.936 327.328L404.848 332.205C404.073 332.681 403.035 333.106 401.734 333.481C400.458 333.856 399.12 334.044 397.719 334.044Z" fill="black"/>
<path d="M361.7 333.706L361.587 331.98L363.501 331.417L371.155 312.62L373.969 311.006L382.448 331.417L384.362 331.98L384.249 333.706H375.057L374.944 331.98L377.308 331.417L375.207 326.315L374.794 325.076L370.93 315.771L371.943 315.809L368.566 325.001L368.191 326.127L366.352 331.417L368.716 331.98L368.604 333.706H361.7ZM367.403 327.14V324.776C367.878 324.801 368.453 324.839 369.129 324.889C369.829 324.914 370.717 324.926 371.793 324.926C372.843 324.926 373.719 324.914 374.419 324.889C375.145 324.839 375.732 324.801 376.183 324.776V327.103C375.582 327.103 374.919 327.09 374.194 327.065C373.494 327.04 372.693 327.028 371.793 327.028C370.892 327.028 370.092 327.04 369.391 327.065C368.691 327.09 368.028 327.115 367.403 327.14Z" fill="black"/>
<path d="M344.818 333.706L344.706 331.98L346.919 331.417C346.944 331.317 346.969 331.03 346.994 330.555C347.019 330.054 347.044 329.404 347.069 328.603C347.094 327.778 347.107 326.84 347.107 325.789L347.144 319.449C347.144 318.423 347.132 317.523 347.107 316.747C347.082 315.947 347.057 315.309 347.032 314.834C347.007 314.358 346.982 314.083 346.957 314.008L344.593 313.408L344.706 311.682H356.112C356.587 311.682 357.125 311.682 357.725 311.682C358.35 311.657 358.963 311.632 359.564 311.607C360.189 311.557 360.727 311.519 361.177 311.494L362.115 316.86L360.089 317.122L358.701 313.896C358.45 313.846 358.188 313.808 357.913 313.783C357.663 313.758 357.4 313.746 357.125 313.746H353.823C353.423 313.746 353.01 313.758 352.585 313.783C352.16 313.808 351.809 313.846 351.534 313.896C351.534 313.996 351.522 314.158 351.497 314.383C351.497 314.583 351.497 314.859 351.497 315.209C351.497 315.559 351.497 316.009 351.497 316.56C351.497 317.11 351.497 317.785 351.497 318.586L351.534 326.99C351.534 327.716 351.547 328.403 351.572 329.054C351.597 329.679 351.622 330.204 351.647 330.63C351.672 331.055 351.697 331.317 351.722 331.417L354.761 331.905L354.648 333.706H344.818ZM357.35 326.502L356.937 323.838C356.687 323.788 356.387 323.751 356.037 323.726C355.711 323.701 355.336 323.688 354.911 323.688H352.435C352.034 323.688 351.659 323.701 351.309 323.726C350.984 323.751 350.659 323.776 350.334 323.801V321.362C350.609 321.387 350.921 321.412 351.272 321.437C351.647 321.462 352.034 321.475 352.435 321.475H354.911C355.411 321.475 355.837 321.462 356.187 321.437C356.537 321.412 356.787 321.387 356.937 321.362L357.35 318.848H359.338V326.502H357.35Z" fill="black"/>
<path d="M318.853 311.682H328.158L328.271 313.408L325.907 314.008C325.882 314.208 325.857 314.546 325.832 315.021C325.807 315.496 325.782 316.122 325.757 316.897C325.757 317.648 325.757 318.586 325.757 319.711V324.214C325.757 325.714 325.97 326.965 326.395 327.966C326.845 328.941 327.483 329.679 328.308 330.179C329.134 330.655 330.122 330.892 331.272 330.892C332.398 330.892 333.348 330.655 334.124 330.179C334.899 329.704 335.487 328.966 335.887 327.966C336.288 326.94 336.488 325.652 336.488 324.101V320.387C336.488 319.111 336.475 318.01 336.45 317.085C336.425 316.159 336.4 315.434 336.375 314.909C336.35 314.383 336.313 314.083 336.263 314.008L333.636 313.408L333.749 311.682H341.74L341.853 313.408L339.489 314.008C339.464 314.083 339.439 314.383 339.414 314.909C339.389 315.434 339.364 316.159 339.339 317.085C339.314 318.01 339.302 319.111 339.302 320.387V324.589C339.302 326.615 338.939 328.328 338.214 329.729C337.513 331.13 336.513 332.205 335.212 332.956C333.911 333.681 332.398 334.044 330.672 334.044C327.67 334.044 325.357 333.243 323.731 331.643C322.105 330.042 321.292 327.765 321.292 324.814V319.711C321.292 318.561 321.279 317.573 321.254 316.747C321.229 315.922 321.204 315.284 321.179 314.834C321.154 314.358 321.129 314.083 321.104 314.008L318.741 313.408L318.853 311.682Z" fill="black"/>
<path d="M310.9 327.253V320.649C310.9 319.348 310.887 318.223 310.862 317.272C310.862 316.297 310.837 315.534 310.787 314.984C310.762 314.408 310.725 314.071 310.675 313.971L308.086 313.408L308.198 311.682H315.89L316.002 313.408L313.639 313.971C313.614 314.071 313.576 314.408 313.526 314.984C313.501 315.534 313.476 316.297 313.451 317.272C313.426 318.223 313.414 319.348 313.414 320.649V328.378C313.414 329.429 313.414 330.392 313.414 331.267C313.439 332.143 313.451 333.018 313.451 333.894H311.35L296.717 316.109L298.293 316.072V324.401C298.293 325.802 298.305 327.003 298.33 328.003C298.355 329.004 298.38 329.792 298.405 330.367C298.456 330.917 298.506 331.267 298.556 331.417L301.144 331.98L301.032 333.706H293.228L293.115 331.98L295.479 331.417C295.529 331.267 295.566 330.905 295.591 330.329C295.616 329.729 295.642 328.929 295.667 327.928C295.692 326.903 295.704 325.727 295.704 324.401V318.923C295.704 318.048 295.692 317.26 295.667 316.559C295.642 315.834 295.604 315.246 295.554 314.796C295.529 314.346 295.504 314.071 295.479 313.971L293.115 313.408L293.228 311.682H298.893L312.138 327.253H310.9Z" fill="black"/>
<path d="M269.252 333.706L269.14 331.98L271.053 331.417L278.707 312.62L281.521 311.006L290.001 331.417L291.914 331.98L291.802 333.706H282.609L282.497 331.98L284.861 331.417L282.759 326.315L282.347 325.076L278.482 315.771L279.495 315.809L276.118 325.001L275.743 326.127L273.905 331.417L276.268 331.98L276.156 333.706H269.252ZM274.955 327.14V324.776C275.43 324.801 276.006 324.839 276.681 324.889C277.382 324.914 278.269 324.926 279.345 324.926C280.396 324.926 281.271 324.914 281.971 324.889C282.697 324.839 283.285 324.801 283.735 324.776V327.103C283.135 327.103 282.472 327.09 281.746 327.065C281.046 327.04 280.246 327.028 279.345 327.028C278.445 327.028 277.644 327.04 276.944 327.065C276.243 327.09 275.581 327.115 274.955 327.14Z" fill="black"/>
<path d="M238.297 311.682H245.726L253.568 328.754H252.63L259.909 311.682H267.15L267.263 313.408L264.899 313.933C264.874 314.183 264.874 314.721 264.899 315.546C264.924 316.372 264.949 317.447 264.974 318.773L265.199 325.452C265.249 326.552 265.287 327.528 265.312 328.378C265.362 329.204 265.399 329.879 265.424 330.404C265.474 330.905 265.512 331.242 265.537 331.417L267.901 331.98L267.788 333.706H258.333L258.22 331.98L260.584 331.417C260.609 331.292 260.622 331.017 260.622 330.592C260.647 330.142 260.659 329.516 260.659 328.716C260.659 327.891 260.647 326.878 260.622 325.677L260.509 312.77H261.972L253.005 333.819H251.017L241.261 312.77H243.1L243.137 325.602C243.137 327.578 243.15 328.991 243.175 329.842C243.2 330.692 243.225 331.217 243.25 331.417L245.839 331.98L245.726 333.706H237.772L237.659 331.98L240.248 331.417C240.273 331.242 240.298 330.905 240.323 330.404C240.348 329.879 240.373 329.241 240.398 328.491C240.423 327.74 240.436 326.928 240.436 326.052L240.548 318.848C240.573 317.447 240.573 316.372 240.548 315.621C240.548 314.846 240.548 314.296 240.548 313.971L238.185 313.408L238.297 311.682Z" fill="black"/>
<path d="M210.495 334.044C208.619 334.044 207.043 333.769 205.768 333.218C204.517 332.668 203.579 331.943 202.954 331.042C202.328 330.117 202.016 329.104 202.016 328.003C202.016 326.978 202.303 326.002 202.879 325.077C203.454 324.151 204.317 323.301 205.468 322.525C206.618 321.725 208.069 321.037 209.82 320.462C211.271 319.661 212.396 318.911 213.197 318.21C213.997 317.51 214.56 316.797 214.885 316.072C215.21 315.321 215.373 314.483 215.373 313.558C215.373 312.607 215.148 311.894 214.698 311.419C214.247 310.919 213.697 310.669 213.047 310.669C212.271 310.669 211.621 310.969 211.096 311.569C210.57 312.17 210.308 313.033 210.308 314.158C210.308 314.834 210.383 315.509 210.533 316.184C210.708 316.835 210.983 317.547 211.358 318.323C211.758 319.073 212.271 319.924 212.897 320.874C213.547 321.825 214.36 322.925 215.335 324.176C216.511 325.702 217.599 326.99 218.6 328.041C219.625 329.066 220.651 329.842 221.676 330.367C222.702 330.867 223.79 331.117 224.941 331.117C225.591 331.117 226.216 331.005 226.817 330.78C227.442 330.554 228.042 330.229 228.618 329.804L229.668 331.005C228.968 331.98 228.055 332.731 226.929 333.256C225.829 333.781 224.615 334.044 223.29 334.044C221.664 334.044 220.175 333.744 218.825 333.143C217.474 332.543 216.186 331.643 214.96 330.442C213.735 329.241 212.459 327.753 211.133 325.977C209.882 324.276 208.894 322.825 208.169 321.625C207.444 320.424 206.931 319.348 206.631 318.398C206.356 317.447 206.218 316.522 206.218 315.621C206.218 314.271 206.518 313.07 207.118 312.02C207.744 310.969 208.582 310.144 209.632 309.543C210.708 308.943 211.921 308.643 213.272 308.643C215.048 308.643 216.448 309.093 217.474 309.993C218.525 310.894 219.05 312.132 219.05 313.708C219.05 314.758 218.775 315.747 218.224 316.672C217.699 317.598 216.861 318.485 215.711 319.336C214.56 320.186 213.059 321.037 211.208 321.887C209.557 322.663 208.394 323.488 207.719 324.364C207.068 325.239 206.743 326.19 206.743 327.215C206.743 327.966 206.931 328.653 207.306 329.279C207.706 329.879 208.282 330.354 209.032 330.705C209.807 331.055 210.77 331.23 211.921 331.23C213.397 331.23 214.723 330.955 215.898 330.404C217.074 329.854 218.112 328.979 219.012 327.778C219.938 326.577 220.738 325.026 221.414 323.125L218.787 322.75L218.9 321.024L227.304 320.987L227.417 322.713L224.79 323.125C223.615 325.552 222.314 327.578 220.888 329.204C219.463 330.805 217.887 332.018 216.161 332.843C214.46 333.644 212.571 334.044 210.495 334.044Z" fill="black"/>
<path d="M161.53 311.682H171.473C175.5 311.682 178.639 312.632 180.89 314.533C183.141 316.409 184.267 319.036 184.267 322.413C184.267 324.614 183.729 326.565 182.654 328.266C181.603 329.967 180.14 331.305 178.264 332.28C176.413 333.231 174.287 333.706 171.885 333.706H161.53L161.417 331.98L163.781 331.417C163.856 331.217 163.918 330.58 163.968 329.504C164.019 328.428 164.044 327.165 164.044 325.714V319.711C164.044 318.16 164.019 316.86 163.968 315.809C163.918 314.733 163.856 314.121 163.781 313.971L161.417 313.408L161.53 311.682ZM168.546 314.008C168.546 314.208 168.533 314.533 168.508 314.984C168.508 315.434 168.496 316.047 168.471 316.822C168.471 317.573 168.471 318.536 168.471 319.711V325.714C168.471 326.39 168.471 327.078 168.471 327.778C168.496 328.478 168.521 329.116 168.546 329.692C168.596 330.267 168.633 330.73 168.659 331.08C169.309 331.18 169.922 331.267 170.497 331.342C171.097 331.392 171.66 331.417 172.185 331.417C174.487 331.417 176.225 330.78 177.401 329.504C178.601 328.203 179.202 326.227 179.202 323.576C179.202 321.85 179.002 320.374 178.601 319.148C178.201 317.923 177.638 316.91 176.913 316.109C176.188 315.309 175.325 314.721 174.324 314.346C173.349 313.971 172.273 313.783 171.097 313.783C170.697 313.783 170.284 313.808 169.859 313.858C169.434 313.883 168.996 313.933 168.546 314.008Z" fill="black"/>
<path d="M157.591 333.931C156.916 333.856 156.14 333.794 155.265 333.744C154.414 333.719 153.639 333.706 152.939 333.706H140.032L139.919 331.98L142.283 331.417C142.333 331.292 142.37 330.98 142.395 330.479C142.445 329.979 142.483 329.329 142.508 328.528C142.533 327.703 142.545 326.765 142.545 325.714V319.711C142.545 318.636 142.533 317.685 142.508 316.86C142.483 316.034 142.445 315.371 142.395 314.871C142.37 314.371 142.333 314.071 142.283 313.971L139.919 313.408L140.032 311.682H151.775C152.226 311.682 152.751 311.682 153.351 311.682C153.977 311.657 154.589 311.632 155.19 311.607C155.815 311.557 156.353 311.519 156.803 311.494L157.704 316.86L155.715 317.122L154.364 313.896C154.064 313.846 153.789 313.808 153.539 313.783C153.289 313.758 153.014 313.746 152.713 313.746H149.412C148.936 313.746 148.486 313.758 148.061 313.783C147.661 313.783 147.31 313.808 147.01 313.858C147.01 314.008 146.998 314.296 146.973 314.721C146.973 315.146 146.96 315.672 146.935 316.297C146.935 316.922 146.935 317.61 146.935 318.36V326.99C146.935 327.69 146.935 328.341 146.935 328.941C146.96 329.516 146.973 330.017 146.973 330.442C146.998 330.842 147.01 331.142 147.01 331.342C147.436 331.392 147.873 331.43 148.324 331.455C148.774 331.48 149.337 331.493 150.012 331.493H152.563C153.164 331.493 153.626 331.493 153.952 331.493C154.277 331.468 154.527 331.443 154.702 331.417C154.877 331.392 155.052 331.367 155.227 331.342L157.253 327.665L159.242 328.041L157.591 333.931ZM153.014 326.127L152.638 323.613C152.463 323.588 152.201 323.563 151.85 323.538C151.5 323.513 151.088 323.501 150.612 323.501H148.361C147.961 323.501 147.561 323.513 147.16 323.538C146.785 323.563 146.46 323.588 146.185 323.613V321.174C146.46 321.2 146.785 321.225 147.16 321.25C147.561 321.25 147.961 321.25 148.361 321.25H150.612C151.088 321.25 151.5 321.25 151.85 321.25C152.201 321.225 152.463 321.212 152.638 321.212L153.014 318.661H154.927V326.127H153.014Z" fill="black"/>
<path d="M132.039 327.253V320.649C132.039 319.348 132.027 318.223 132.002 317.272C132.002 316.297 131.977 315.534 131.927 314.984C131.902 314.408 131.864 314.071 131.814 313.971L129.225 313.408L129.338 311.682H137.03L137.142 313.408L134.778 313.971C134.753 314.071 134.716 314.408 134.666 314.984C134.641 315.534 134.616 316.297 134.591 317.272C134.566 318.223 134.553 319.348 134.553 320.649V328.378C134.553 329.429 134.553 330.392 134.553 331.267C134.578 332.143 134.591 333.018 134.591 333.894H132.49L117.857 316.109L119.433 316.072V324.401C119.433 325.802 119.445 327.003 119.47 328.003C119.495 329.004 119.52 329.792 119.545 330.367C119.595 330.917 119.645 331.267 119.695 331.417L122.284 331.98L122.172 333.706H114.367L114.255 331.98L116.619 331.417C116.669 331.267 116.706 330.905 116.731 330.329C116.756 329.729 116.781 328.929 116.806 327.928C116.831 326.903 116.844 325.727 116.844 324.401V318.923C116.844 318.048 116.831 317.26 116.806 316.559C116.781 315.834 116.744 315.246 116.694 314.796C116.669 314.346 116.644 314.071 116.619 313.971L114.255 313.408L114.367 311.682H120.033L133.278 327.253H132.039Z" fill="black"/>
<path d="M102.173 334.044C99.8219 334.044 97.7208 333.619 95.8698 332.768C94.0188 331.918 92.568 330.68 91.5174 329.054C90.4669 327.428 89.9416 325.439 89.9416 323.088C89.9416 321.337 90.2543 319.749 90.8796 318.323C91.5049 316.872 92.3804 315.634 93.506 314.608C94.6566 313.558 96.0198 312.757 97.5957 312.207C99.1966 311.632 100.973 311.344 102.924 311.344C104.024 311.344 105.15 311.457 106.3 311.682C107.451 311.907 108.414 312.207 109.189 312.582L109.377 317.76L107.276 317.873L106.113 314.458C105.612 314.158 105.025 313.946 104.349 313.82C103.699 313.695 103.099 313.633 102.548 313.633C100.922 313.633 99.5593 313.996 98.4587 314.721C97.3831 315.446 96.5701 316.447 96.0198 317.723C95.4946 318.998 95.2319 320.474 95.2319 322.15C95.2319 324.151 95.5696 325.877 96.245 327.328C96.9453 328.753 97.8708 329.842 99.0215 330.592C100.197 331.342 101.498 331.718 102.924 331.718C103.399 331.718 103.937 331.655 104.537 331.53C105.137 331.38 105.675 331.142 106.15 330.817L105.4 332.881V328.904C105.4 328.278 105.387 327.665 105.362 327.065C105.337 326.44 105.3 325.964 105.25 325.639L102.623 325.152L102.736 323.351H111.403L111.516 325.076L109.715 325.602C109.69 325.777 109.677 326.127 109.677 326.652C109.702 327.178 109.715 327.753 109.715 328.378C109.715 328.879 109.727 329.416 109.752 329.992C109.777 330.542 109.802 331.217 109.827 332.018C108.777 332.668 107.564 333.168 106.188 333.519C104.837 333.869 103.499 334.044 102.173 334.044Z" fill="black"/>
<path d="M77.3729 333.706L77.2603 331.98L79.6241 331.417C79.6741 331.292 79.7116 330.98 79.7366 330.479C79.7617 329.979 79.7867 329.316 79.8117 328.491C79.8367 327.665 79.8492 326.74 79.8492 325.714V319.711C79.8492 318.636 79.8367 317.685 79.8117 316.86C79.7867 316.034 79.7617 315.371 79.7366 314.871C79.7116 314.346 79.6741 314.046 79.6241 313.971L77.2603 313.408L77.3729 311.682H86.7529L86.8655 313.408L84.5017 313.971C84.4517 314.071 84.4017 314.371 84.3516 314.871C84.3266 315.371 84.3016 316.034 84.2766 316.86C84.2766 317.66 84.2766 318.611 84.2766 319.711V325.714C84.2766 326.765 84.2766 327.703 84.2766 328.528C84.3016 329.329 84.3266 329.979 84.3516 330.479C84.4017 330.98 84.4517 331.292 84.5017 331.417L86.8655 331.98L86.7529 333.706H77.3729Z" fill="black"/>
<path d="M65.8183 334.044C64.7427 334.044 63.5921 333.906 62.3664 333.631C61.1408 333.331 60.1027 332.943 59.2523 332.468L59.0647 327.14L61.2033 326.99L62.404 330.667C62.9793 331.042 63.6171 331.33 64.3175 331.53C65.0179 331.705 65.6932 331.793 66.3436 331.793C67.5192 331.793 68.4197 331.542 69.045 331.042C69.6954 330.517 70.0206 329.817 70.0206 328.941C70.0206 328.066 69.7579 327.353 69.2326 326.802C68.7074 326.252 68.032 325.777 67.2065 325.377C66.3811 324.976 65.5056 324.589 64.5801 324.213C63.6546 323.838 62.7792 323.388 61.9537 322.863C61.1283 322.337 60.4529 321.675 59.9276 320.874C59.4023 320.074 59.1397 319.061 59.1397 317.835C59.1397 316.534 59.5024 315.396 60.2278 314.421C60.9782 313.42 62.0163 312.645 63.342 312.094C64.6677 311.544 66.1935 311.269 67.9194 311.269C68.5197 311.269 69.1451 311.307 69.7954 311.382C70.4458 311.457 71.0711 311.569 71.6714 311.719C72.2718 311.869 72.797 312.044 73.2473 312.245L73.6225 317.46L71.4838 317.61L70.3582 314.121C69.5328 313.67 68.5948 313.445 67.5442 313.445C66.4186 313.445 65.5056 313.72 64.8053 314.271C64.1299 314.821 63.7922 315.571 63.7922 316.522C63.7922 317.372 64.0549 318.085 64.5801 318.661C65.1054 319.211 65.7808 319.699 66.6062 320.124C67.4567 320.524 68.3447 320.924 69.2702 321.324C70.2207 321.7 71.1086 322.15 71.9341 322.675C72.7845 323.175 73.4724 323.813 73.9977 324.589C74.523 325.364 74.7856 326.34 74.7856 327.515C74.7856 328.766 74.4104 329.892 73.66 330.892C72.9096 331.868 71.859 332.643 70.5083 333.218C69.1576 333.769 67.5942 334.044 65.8183 334.044Z" fill="black"/>
<path d="M54.7874 333.931C54.1121 333.856 53.3366 333.794 52.4612 333.744C51.6107 333.719 50.8353 333.706 50.1349 333.706H37.228L37.1154 331.98L39.4792 331.417C39.5292 331.292 39.5668 330.98 39.5918 330.479C39.6418 329.979 39.6793 329.329 39.7043 328.528C39.7293 327.703 39.7418 326.765 39.7418 325.714V319.711C39.7418 318.636 39.7293 317.685 39.7043 316.86C39.6793 316.034 39.6418 315.371 39.5918 314.871C39.5668 314.371 39.5292 314.071 39.4792 313.971L37.1154 313.408L37.228 311.682H48.9718C49.422 311.682 49.9473 311.682 50.5476 311.682C51.173 311.657 51.7858 311.632 52.3861 311.607C53.0115 311.557 53.5493 311.519 53.9995 311.494L54.9 316.86L52.9114 317.122L51.5607 313.896C51.2605 313.846 50.9854 313.808 50.7352 313.783C50.4851 313.758 50.21 313.746 49.9098 313.746H46.608C46.1328 313.746 45.6825 313.758 45.2573 313.783C44.8571 313.783 44.5069 313.808 44.2067 313.858C44.2067 314.008 44.1942 314.296 44.1692 314.721C44.1692 315.146 44.1567 315.672 44.1317 316.297C44.1317 316.922 44.1317 317.61 44.1317 318.36V326.99C44.1317 327.69 44.1317 328.341 44.1317 328.941C44.1567 329.516 44.1692 330.017 44.1692 330.442C44.1942 330.842 44.2067 331.142 44.2067 331.342C44.632 331.392 45.0697 331.43 45.5199 331.455C45.9702 331.48 46.533 331.493 47.2084 331.493H49.7597C50.36 331.493 50.8228 331.493 51.148 331.493C51.4731 331.468 51.7233 331.443 51.8984 331.417C52.0735 331.392 52.2486 331.367 52.4237 331.342L54.4497 327.665L56.4383 328.041L54.7874 333.931ZM50.21 326.127L49.8348 323.613C49.6597 323.588 49.397 323.563 49.0468 323.538C48.6967 323.513 48.2839 323.501 47.8087 323.501H45.5575C45.1573 323.501 44.757 323.513 44.3568 323.538C43.9816 323.563 43.6564 323.588 43.3813 323.613V321.174C43.6564 321.2 43.9816 321.225 44.3568 321.25C44.757 321.25 45.1573 321.25 45.5575 321.25H47.8087C48.2839 321.25 48.6967 321.25 49.0468 321.25C49.397 321.225 49.6597 321.212 49.8348 321.212L50.21 318.661H52.1235V326.127H50.21Z" fill="black"/>
<path d="M11.1127 311.682H21.0555C25.0827 311.682 28.2219 312.632 30.4731 314.533C32.7243 316.409 33.8499 319.036 33.8499 322.413C33.8499 324.614 33.3121 326.565 32.2365 328.266C31.186 329.967 29.7227 331.305 27.8467 332.28C25.9957 333.231 23.8695 333.706 21.4682 333.706H11.1127L11.0001 331.98L13.3639 331.417C13.4389 331.217 13.5015 330.58 13.5515 329.504C13.6015 328.428 13.6265 327.165 13.6265 325.714V319.711C13.6265 318.16 13.6015 316.86 13.5515 315.809C13.5015 314.733 13.4389 314.121 13.3639 313.971L11.0001 313.408L11.1127 311.682ZM18.1289 314.008C18.1289 314.208 18.1164 314.533 18.0914 314.984C18.0914 315.434 18.0789 316.047 18.0539 316.822C18.0539 317.573 18.0539 318.536 18.0539 319.711V325.714C18.0539 326.39 18.0539 327.078 18.0539 327.778C18.0789 328.478 18.1039 329.116 18.1289 329.692C18.179 330.267 18.2165 330.73 18.2415 331.08C18.8919 331.18 19.5047 331.267 20.08 331.342C20.6803 331.392 21.2431 331.417 21.7684 331.417C24.0696 331.417 25.8081 330.78 26.9837 329.504C28.1843 328.203 28.7847 326.227 28.7847 323.576C28.7847 321.85 28.5846 320.374 28.1843 319.148C27.7841 317.923 27.2213 316.91 26.4959 316.109C25.7705 315.309 24.9076 314.721 23.907 314.346C22.9315 313.971 21.8559 313.783 20.6803 313.783C20.2801 313.783 19.8674 313.808 19.4421 313.858C19.0169 313.883 18.5792 313.933 18.1289 314.008Z" fill="black"/>
<path d="M273.689 24.5871L276.092 28.7487L247.657 45.1655L245.254 41.0039L273.689 24.5871Z" fill="#2C5234"/>
<path d="M237.633 57.2915L240.036 61.4531L232.57 65.7636L230.167 61.602L237.633 57.2915ZM302.018 20.1191L304.421 24.2807L247.761 56.9932L245.358 52.8315L302.018 20.1191Z" fill="#2C5234"/>
<path d="M215.078 82.2071L217.481 86.3687L196.249 98.6272L193.846 94.4656L215.078 82.2071ZM308.451 28.2982L310.854 32.4598L244.246 70.9161L241.843 66.7544L308.451 28.2982Z" fill="#2C5234"/>
<path d="M232.48 84.0552L234.883 88.2168L187.238 115.724L184.836 111.563L232.48 84.0552ZM254.373 71.4152L256.776 75.5768L250.337 79.2943L247.934 75.1327L254.373 71.4152ZM335.618 24.5081L338.021 28.6698L265.787 70.3744L263.384 66.2127L335.618 24.5081Z" fill="#2C5234"/>
<path d="M198.302 115.681L200.704 119.843L194.962 123.158L192.559 118.997L198.302 115.681ZM246.643 87.7717L249.045 91.9333L209.126 114.981L206.723 110.819L246.643 87.7717ZM340.766 33.4297L343.168 37.5913L255.484 88.2158L253.081 84.0542L340.766 33.4297Z" fill="#2C5234"/>
<path d="M191.273 131.639L193.675 135.8L183.392 141.737L180.989 137.576L191.273 131.639ZM341.935 44.6537L344.338 48.8154L199.002 132.725L196.6 128.563L341.935 44.6537Z" fill="#2C5234"/>
<path d="M351.067 51.278L353.47 55.4396L194.962 146.954L192.559 142.792L351.067 51.278Z" fill="#2C5234"/>
<path d="M356.219 60.1934L358.621 64.355L205.266 152.894L202.864 148.733L356.219 60.1934Z" fill="#2C5234"/>
<path d="M361.37 69.1124L363.773 73.274L222.005 155.123L219.603 150.962L361.37 69.1124Z" fill="#2C5234"/>
<path d="M359.959 81.8294L362.362 85.991L214.503 171.357L212.101 167.195L359.959 81.8294Z" fill="#2C5234"/>
<path d="M331.629 110.072L334.032 114.234L210.572 185.513L208.169 181.352L331.629 110.072ZM348.369 100.407L350.772 104.569L341.761 109.771L339.359 105.609L348.369 100.407Z" fill="#2C5234"/>
<path d="M334.212 120.483L336.614 124.645L210.417 197.504L208.015 193.343L334.212 120.483Z" fill="#2C5234"/>
<path d="M334.208 132.381L336.611 136.543L175.648 229.475L173.245 225.313L334.208 132.381Z" fill="#2C5234"/>
<path d="M189.99 227.548L192.392 231.709L179.515 239.144L177.112 234.983L189.99 227.548ZM339.361 141.308L341.764 145.469L197.541 228.737L195.138 224.575L339.361 141.308Z" fill="#2C5234"/>
<path d="M341.938 151.707L344.341 155.868L179.515 251.031L177.112 246.869L341.938 151.707Z" fill="#2C5234"/>
<path d="M340.185 164.618L342.588 168.779L202.075 249.904L199.672 245.743L340.185 164.618Z" fill="#2C5234"/>
<path d="M341.936 175.5L344.338 179.662L203.977 260.699L201.575 256.538L341.936 175.5Z" fill="#2C5234"/>
<path d="M336.782 190.373L339.184 194.535L215.568 265.904L213.165 261.743L336.782 190.373Z" fill="#2C5234"/>
<path d="M262.779 244.983L265.181 249.145L243.895 261.434L241.493 257.273L262.779 244.983ZM287.851 230.508L290.254 234.669L269.651 246.564L267.248 242.403L287.851 230.508ZM334.209 203.743L336.612 207.904L303.132 227.234L300.729 223.073L334.209 203.743Z" fill="#2C5234"/>
<path d="M331.152 217.411L333.555 221.572L318.583 230.216L316.18 226.055L331.152 217.411Z" fill="#2C5234"/>
</svg>
